<svg width="1440" height="500" viewBox="0 0 1440 500" fill="none" xmlns="http://www.w3.org/2000/svg">
<path d="M1439.03 695H-2.10336C-2.10336 559.6 -40 237.929 -40 5.81545C546 -48.467 785.644 293.643 992 351.672C1157.08 398.094 1320 351.672 1550 351.672L1439.03 695Z" fill="#B8D8D8" fill-opacity="1"/>
<path d="M1448.53 770.055H7.39664C7.39664 639.101 0 324.769 0 100.277C345.888 76.4244 655.438 328.653 860 391C1111 467.5 1222.5 405 1448.53 467.5V770.055Z" fill="url(#paint0_linear_89_18918)"/>
<g clip-path="url(#clip0_89_18918)">
<path d="M717 464C628.601 405.028 545.643 428.875 458.248 360.907C370.854 292.94 347 265 227 219C107 173 -40 167 -40 167L-40 1319H1400V727.674C1400 727.674 1325.16 665.761 1216.67 655.766C1108.18 645.771 963 562.46 891 528C819 493.54 805.399 522.972 717 464Z" fill="url(#paint1_linear_89_18918)"/>
</g>
<defs>
<linearGradient id="paint0_linear_89_18918" x1="543.5" y1="513.5" x2="766.5" y2="-28.0002" gradientUnits="userSpaceOnUse">
<!-- <stop stop-color="#00CD00"/> -->
<!-- <stop offset="0.520399" fill-opacity="0.2" stop-color="#00CD00"/> -->
<!-- <stop offset="1" fill-opacity="0.2" stop-color="#031659"/> -->
</linearGradient>
<linearGradient id="paint1_linear_89_18918" x1="627.5" y1="769.5" x2="831.129" y2="362.599" gradientUnits="userSpaceOnUse">
<!-- <stop stop-color="#008638"/> -->
<!-- <stop offset="1" fill-opacity="0.2" stop-color="#00CD00"/> -->
</linearGradient>
<clipPath id="clip0_89_18918">
<rect width="1440" height="1112" fill="white" transform="translate(-40 167)"/>
</clipPath>
</defs>
</svg>
