<svg width="40" height="40" viewBox="0 0 40 40" fill="none" xmlns="http://www.w3.org/2000/svg">
<path opacity="0.4" d="M36.6666 20.008C36.6666 29.1895 29.1859 36.6666 19.9999 36.6666C10.8139 36.6666 3.33325 29.1895 3.33325 20.008C3.33325 10.8103 10.8139 3.33325 19.9999 3.33325C29.1859 3.33325 36.6666 10.8103 36.6666 20.008Z" fill="#25DAC5"/>
<path d="M26.6667 20.008C26.6667 20.4292 26.5341 20.8521 26.2689 21.1907C26.2192 21.2571 25.9872 21.5309 25.8049 21.7091L25.7055 21.8063C24.3134 23.2822 20.8499 25.5017 19.0933 26.213C19.0933 26.2292 18.0492 26.652 17.5521 26.6666H17.4858C16.7235 26.6666 16.0109 26.247 15.6463 25.5665C15.4474 25.1923 15.2652 24.1068 15.2486 24.0923C15.0994 23.1186 15 21.6281 15 19.9918C15 18.2761 15.0994 16.7192 15.2817 15.7634C15.2817 15.7472 15.464 14.8723 15.58 14.5807C15.7623 14.1611 16.0938 13.8031 16.508 13.5763C16.8395 13.4159 17.1875 13.3333 17.5521 13.3333C17.9332 13.3511 18.6458 13.5925 18.9276 13.7059C20.7836 14.4187 24.33 16.7516 25.6889 18.1773C25.9209 18.4041 26.1695 18.6812 26.2358 18.7443C26.5175 19.1008 26.6667 19.5382 26.6667 20.008Z" fill="#112957"/>
</svg>
