<svg width="20" height="20" viewBox="0 0 20 20" fill="none" xmlns="http://www.w3.org/2000/svg">
<path opacity="0.4" d="M16.6609 15.7944H11.9157C11.4527 15.7944 11.0762 16.1769 11.0762 16.6472C11.0762 17.1184 11.4527 17.5 11.9157 17.5H16.6609C17.1239 17.5 17.5004 17.1184 17.5004 16.6472C17.5004 16.1769 17.1239 15.7944 16.6609 15.7944" fill="#2BDCF4"/>
<path d="M8.59085 5.75321L13.0874 9.38662C13.1959 9.47351 13.2144 9.63297 13.1297 9.74405L7.79895 16.6902C7.46385 17.1193 6.97001 17.362 6.4409 17.371L3.5308 17.4068C3.37559 17.4086 3.23979 17.3011 3.20452 17.147L2.54313 14.2715C2.42849 13.7429 2.54313 13.1965 2.87823 12.7755L8.23547 5.79621C8.32189 5.68423 8.4815 5.66452 8.59085 5.75321" fill="#2BDCF4"/>
<path opacity="0.4" d="M15.1001 7.2212L14.2332 8.30334C14.1459 8.41352 13.989 8.43144 13.8805 8.34365C12.8267 7.49084 10.1282 5.30237 9.37953 4.69591C9.27018 4.60633 9.25518 4.44687 9.34337 4.33579L10.1794 3.29755C10.9378 2.32111 12.2605 2.23153 13.3276 3.08255L14.5533 4.05899C15.056 4.45314 15.3911 4.97271 15.5057 5.51916C15.638 6.12025 15.4969 6.71059 15.1001 7.2212" fill="#2BDCF4"/>
</svg>
